<svg width="87" height="102" viewBox="0 0 87 102" fill="none" xmlns="http://www.w3.org/2000/svg">
<g filter="url(#filter0_i_262_5605)">
<path d="M0 21.7187C0 9.7238 9.74839 0 21.6488 0C33.5493 0 43.2977 9.7238 43.2977 21.7187V79.4313C43.2977 91.4262 33.5493 101.15 21.6488 101.15C9.74839 101.15 0 91.4262 0 79.4313V21.7187Z" fill="#006D59"/>
<path d="M64.5326 0C76.9409 0 87 10.1853 87 22.6922C87 38.1723 74.5497 50.7789 59.1915 50.7789H43.2977V21.4035C43.2977 9.58267 52.8049 3.74974e-05 64.5326 0Z" fill="#006D59"/>
<path d="M43.2977 80.1544C43.2977 91.9752 52.8049 101.558 64.5326 101.558C76.941 101.558 87 91.3726 87 78.8657C87 63.3856 74.5497 50.7789 59.1915 50.7789H43.2977V80.1544Z" fill="#006D59"/>
<path d="M43.2977 80.3526C43.2977 92.0639 33.8785 101.558 22.2593 101.558C9.96584 101.558 0 91.3735 0 78.9824C0 63.5023 12.4503 50.7789 27.8085 50.7789H43.2977V80.3526Z" fill="#006D59"/>
</g>
<defs>
<filter id="filter0_i_262_5605" x="0" y="0" width="89" height="104.558" filterUnits="userSpaceOnUse" color-interpolation-filters="sRGB">
<feFlood flood-opacity="0" result="BackgroundImageFix"/>
<feBlend mode="normal" in="SourceGraphic" in2="BackgroundImageFix" result="shape"/>
<feColorMatrix in="SourceAlpha" type="matrix" values="0 0 0 0 0 0 0 0 0 0 0 0 0 0 0 0 0 0 127 0" result="hardAlpha"/>
<feMorphology radius="1" operator="erode" in="SourceAlpha" result="effect1_innerShadow_262_5605"/>
<feOffset dx="2" dy="3"/>
<feGaussianBlur stdDeviation="5"/>
<feComposite in2="hardAlpha" operator="arithmetic" k2="-1" k3="1"/>
<feColorMatrix type="matrix" values="0 0 0 0 0 0 0 0 0 0 0 0 0 0 0 0 0 0 0.4 0"/>
<feBlend mode="normal" in2="shape" result="effect1_innerShadow_262_5605"/>
</filter>
</defs>
</svg>
