<!DOCTYPE svg PUBLIC "-//W3C//DTD SVG 1.1//EN" "http://www.w3.org/Graphics/SVG/1.1/DTD/svg11.dtd">
<!-- Uploaded to: SVG Repo, www.svgrepo.com, Transformed by: SVG Repo Mixer Tools -->
<svg width="800px" height="800px" viewBox="0 -4.5 41.09 41.09" xmlns="http://www.w3.org/2000/svg" fill="#333333" stroke="#333333">
<g id="SVGRepo_bgCarrier" stroke-width="0"/>
<g id="SVGRepo_tracerCarrier" stroke-linecap="round" stroke-linejoin="round"/>
<g id="SVGRepo_iconCarrier"> <g id="Group_53" data-name="Group 53" transform="translate(-140 -53.91)"> <path id="Imported-Layers_4_" d="M146,85h-4a.945.945,0,0,1-1-1V58a.945.945,0,0,1,1-1h23M150,84a.945.945,0,0,0,1,1h4l25-25s.4-2.6-1-4-4-1-4-1L150,80v4m23-27,5,5m-3-2L154,81l21-21M162,85h16a.945.945,0,0,0,1-1V69" fill="none" stroke="#333333" stroke-linecap="round" stroke-linejoin="round" stroke-width="2"/> </g> </g>
</svg>