<svg width="94" height="142" viewBox="0 0 94 142" fill="none" xmlns="http://www.w3.org/2000/svg">
<path fill-rule="evenodd" clip-rule="evenodd" d="M55.0859 0.0859375L55.0889 0.0839844L71.001 15.9971L70.998 16H71V29.0039L84.9961 43H85V43.0039L85.0088 43.0127L85 43.0215V63.0039L85.0088 63.0127L85 63.0215V136H94V142H0V136H11V57.0078L10.9941 57.002L26.9941 41.002L27.0801 41.0879L27.083 41.0859L39 53.0029V16L55 0L55.0859 0.0859375ZM15 98.8037V136H25V88.8037L15 98.8037ZM29 136H39V58.8281L29 48.8281V136ZM43 17.8076V136H53V7.80762L43 17.8076ZM57 136H67V37.8203L57 27.8203V136ZM71 136H81V64.8281L71 54.8281V136ZM15 78.8037V92.9961L25 82.9961V68.8037L15 78.8037ZM15 58.8037V72.9961L25 62.9961V48.8037L15 58.8037ZM71 49.0039L81 59.0039V44.8281L71 34.8281V49.0039ZM57 21.9951L67 31.9951V17.8203L57 7.82031V21.9951Z" fill="#006D59"/>
</svg>
