<svg width="57" height="43" viewBox="0 0 57 43" fill="none" xmlns="http://www.w3.org/2000/svg">
<path d="M54.7235 36.8707C53.6814 39.2268 50.9934 41.3606 48.4693 41.8318C48.211 41.8802 42.0424 43 28.5169 43H28.4813C14.9576 43 8.78362 41.8802 8.52711 41.8336C6.003 41.3606 3.31323 39.2267 2.26938 36.8689C2.17676 36.6593 0 31.6175 0 21.5C0 11.3825 2.17676 6.33892 2.26938 6.12929C3.31323 3.77146 6.003 1.63938 8.52711 1.16817C8.78362 1.11979 14.9576 0 28.4813 0C42.0424 0 48.211 1.11979 48.4675 1.16638C50.9934 1.63938 53.6814 3.77146 54.7253 6.1275C54.8179 6.33892 57 11.3825 57 21.5C57 31.6175 54.8179 36.6593 54.7235 36.8707ZM51.4655 7.57875C50.9097 6.32279 49.1676 4.94321 47.8174 4.69058C47.7604 4.67983 41.6558 3.58333 28.5169 3.58333C15.3442 3.58333 9.23429 4.67983 9.17551 4.69058C7.82528 4.94321 6.08494 6.32279 5.52739 7.58592C5.50958 7.62354 3.56439 12.2353 3.56439 21.5C3.56439 30.7629 5.50958 35.3747 5.53095 35.4213C6.08494 36.6772 7.82528 38.0568 9.17729 38.3094C9.23429 38.3202 15.3442 39.4167 28.4813 39.4167H28.5169C41.6558 39.4167 47.7604 38.3202 47.8192 38.3094C49.1694 38.0568 50.9097 36.6772 51.4673 35.4141C51.4851 35.3747 53.4338 30.7629 53.4338 21.5C53.4338 12.2371 51.4851 7.62354 51.4655 7.57875ZM24.1189 31.9741C23.8303 32.1586 23.499 32.25 23.1694 32.25C22.8737 32.25 22.578 32.1765 22.3091 32.026C21.7408 31.7107 21.3881 31.1105 21.3881 30.4583V12.5417C21.3881 11.8913 21.7373 11.2929 22.3019 10.9775C22.8666 10.6604 23.5595 10.6748 24.1064 11.017L38.3907 19.8965C38.9126 20.2207 39.2333 20.7941 39.235 21.4122C39.2368 22.0303 38.9233 22.6072 38.4032 22.9351L24.1189 31.9741ZM24.9525 15.7559V27.2136L34.0871 21.4337L24.9525 15.7559Z" fill="#006D59"/>
</svg>
